<svg width="30" height="30" viewBox="0 0 30 30" fill="none" xmlns="http://www.w3.org/2000/svg">
<path d="M13.8627 12.1556V13.2919H12.7263V14.9965H13.8627V20.1101H16.1354V14.9965H17.6468L17.8399 13.2919H16.1354V12.2976C16.1354 11.8374 16.1809 11.5931 16.8911 11.5931H17.8399V9.88281H16.3172C14.4991 9.88286 13.8627 10.7351 13.8627 12.1556Z" fill="black"/>
<path d="M15 2.5C8.09644 2.5 2.5 8.09644 2.5 15C2.5 21.9036 8.09644 27.5 15 27.5C21.9036 27.5 27.5 21.9036 27.5 15C27.5 8.09644 21.9036 2.5 15 2.5ZM15 26.3636C8.72402 26.3636 3.63638 21.276 3.63638 15C3.63638 8.72402 8.72402 3.63638 15 3.63638C21.276 3.63638 26.3636 8.72402 26.3636 15C26.3636 21.276 21.276 26.3636 15 26.3636Z" fill="black"/>
</svg>
