<svg width="30" height="30" viewBox="0 0 30 30" fill="none" xmlns="http://www.w3.org/2000/svg">
<g clip-path="url(#clip0_21225_144083)">
<path d="M15.0003 9.52344C11.9802 9.52344 9.52319 11.9804 9.52319 15.0004C9.52319 18.0204 11.9802 20.4774 15.0003 20.4774C18.0204 20.4774 20.4774 18.0204 20.4774 15.0004C20.4774 11.9804 18.0204 9.52344 15.0003 9.52344ZM15.0003 19.1883C12.691 19.1883 10.8123 17.3096 10.8123 15.0004C10.8123 12.6912 12.691 10.8125 15.0003 10.8125C17.3096 10.8125 19.1883 12.6912 19.1883 15.0004C19.1883 17.3096 17.3096 19.1883 15.0003 19.1883Z" fill="black"/>
<path d="M20.1777 4H9.82227C6.61186 4 4 6.61186 4 9.82227V20.1777C4 23.3881 6.61186 26 9.82227 26H20.1777C23.3881 26 26 23.3881 26 20.1777V9.82227C26 6.61186 23.3881 4 20.1777 4ZM24.7109 20.1777C24.7109 22.6774 22.6774 24.7109 20.1777 24.7109H9.82227C7.32264 24.7109 5.28906 22.6774 5.28906 20.1777V9.82227C5.28906 7.32264 7.32264 5.28906 9.82227 5.28906H20.1777C22.6774 5.28906 24.7109 7.32264 24.7109 9.82227V20.1777Z" fill="black"/>
<path d="M21.1274 8.22656C20.9577 8.22656 20.7919 8.29531 20.672 8.41563C20.5517 8.53551 20.4829 8.70137 20.4829 8.87109C20.4829 9.04082 20.5517 9.20711 20.672 9.32699C20.7919 9.44687 20.9577 9.51562 21.1274 9.51562C21.2972 9.51562 21.4635 9.44687 21.5833 9.32699C21.7032 9.20711 21.772 9.04082 21.772 8.87109C21.772 8.7018 21.7032 8.53551 21.5833 8.41563C21.4635 8.29531 21.2972 8.22656 21.1274 8.22656Z" fill="black"/>
</g>
<defs>
<clipPath id="clip0_21225_144083">
<rect width="22" height="22" fill="white" transform="translate(4 4)"/>
</clipPath>
</defs>
</svg>
