<svg width="30" height="30" viewBox="0 0 30 30" fill="none" xmlns="http://www.w3.org/2000/svg">
<g clip-path="url(#clip0_21225_144082)">
<path d="M21.1152 20.6428L21.1151 20.6429L14.2519 25.891V22.3454C14.2519 22.0624 14.0336 21.8273 13.7514 21.8064C10.9309 21.5972 8.36332 20.5724 6.5211 18.9222C4.69167 17.2833 3.68483 15.1124 3.68483 12.8093C3.68483 7.71146 8.75588 3.55593 15 3.55593C21.2442 3.55593 26.3152 7.71146 26.3152 12.8093C26.3152 16.2408 23.8226 18.5987 21.1152 20.6428ZM13.4719 27.4691L13.483 27.4466L13.4719 27.4691C13.5478 27.5066 13.6298 27.525 13.7113 27.525C13.8278 27.525 13.9436 27.4873 14.0397 27.4139L14.0245 27.394L14.0397 27.4139L21.769 21.5035C23.6007 20.1206 24.8654 18.907 25.7476 17.6842C26.8565 16.1472 27.3962 14.5523 27.3962 12.8093C27.3962 10.0292 26.0923 7.42203 23.727 5.46799C21.3903 3.53757 18.2909 2.475 15 2.475C11.7092 2.475 8.60977 3.53757 6.27309 5.46799C3.90776 7.42203 2.60391 10.0292 2.60391 12.8093C2.60391 15.4246 3.73934 17.8815 5.79985 19.7273C7.70928 21.4377 10.3112 22.5327 13.1709 22.839V26.9845C13.1709 27.1902 13.2876 27.3779 13.4719 27.4691Z" fill="black" stroke="black" stroke-width="0.05"/>
<path d="M17.949 10.5769C17.947 10.1914 17.7451 9.97662 17.4219 9.98033C17.1018 9.98466 16.909 10.2047 16.907 10.5893C16.9014 11.3008 16.9054 12.0118 16.9039 12.7228C16.9039 12.8255 16.8943 12.927 16.8858 13.1208C16.764 12.9785 16.695 12.9053 16.6336 12.8261C15.9741 11.97 15.3167 11.1122 14.6578 10.255C14.4967 10.0453 14.2928 9.91889 14.0255 10.0028C13.7592 10.086 13.6425 10.3035 13.642 10.5661C13.6369 11.9401 13.6369 13.3133 13.642 14.6867C13.6425 14.912 13.7336 15.1053 13.9531 15.209C14.3407 15.3915 14.7076 15.1164 14.7122 14.6243C14.7213 13.9528 14.7152 13.2803 14.7152 12.6078C14.7152 12.4781 14.7152 12.3482 14.7152 12.2181C14.8446 12.277 14.9075 12.3457 14.9649 12.4193C15.6223 13.2653 16.2782 14.112 16.9341 14.9603C17.0968 15.1732 17.283 15.3288 17.575 15.2296C17.8609 15.1326 17.9515 14.9181 17.9515 14.6399C17.95 13.2851 17.954 11.9312 17.949 10.5769Z" fill="black"/>
<path d="M19.9656 11.0568C20.0647 11.0491 20.178 11.0336 20.2932 11.0333C20.6819 11.03 21.0725 11.0376 21.4606 11.0283C21.6026 11.0242 21.7581 11.0142 21.8834 10.9553C22.1291 10.8407 22.202 10.6115 22.1361 10.3638C22.0717 10.111 21.8834 9.9797 21.6171 9.97888C20.926 9.97718 20.2348 9.97568 19.5437 9.97718C19.0483 9.97847 18.85 10.1702 18.849 10.6635C18.844 11.9688 18.844 13.2743 18.849 14.5791C18.85 15.0647 19.0619 15.271 19.5457 15.2731C20.19 15.276 20.8318 15.2751 21.4742 15.2724C21.5798 15.2714 21.6876 15.2569 21.7893 15.2271C22.0193 15.1597 22.1442 15.0026 22.1517 14.7578C22.1602 14.501 22.0435 14.3241 21.8024 14.2504C21.673 14.2109 21.5335 14.201 21.4001 14.2C20.9179 14.1938 20.4341 14.1972 19.9433 14.1972C19.9433 13.8327 19.9433 13.5166 19.9433 13.1847C20.0354 13.1761 20.11 13.1638 20.185 13.1631C20.6426 13.1606 21.1017 13.1734 21.5587 13.1571C21.9569 13.1422 22.1658 12.924 22.1507 12.5865C22.1376 12.2831 21.9151 12.0958 21.5507 12.0889C21.297 12.0844 21.0443 12.0881 20.7891 12.0879C19.8437 12.0879 19.8437 12.0879 19.9323 11.14C19.9338 11.1212 19.9464 11.1038 19.9656 11.0568Z" fill="black"/>
<path d="M10.5581 14.1986C10.4519 14.1862 10.3446 14.1929 10.2379 14.1929C9.79145 14.1922 9.34697 14.1929 8.85867 14.1929C8.85867 14.0281 8.85867 13.9119 8.85867 13.7966C8.85867 12.7551 8.86068 11.7129 8.85717 10.6713C8.85568 10.2269 8.65882 9.97922 8.32207 9.9766C7.9732 9.97335 7.78444 10.2102 7.78444 10.6608C7.78346 11.9849 7.78243 13.3083 7.78547 14.6329C7.78753 15.0537 7.99186 15.2597 8.41372 15.2681C8.79227 15.2748 10.2138 15.2808 10.5445 15.2637C10.8672 15.2456 11.0917 15.007 11.0872 14.7243C11.0821 14.453 10.8672 14.2352 10.5581 14.1986Z" fill="black"/>
<path d="M12.7367 10.5054C12.7337 10.1041 12.6058 9.97708 12.2187 9.97657C11.8246 9.97554 11.6912 10.0969 11.6902 10.4955C11.6856 11.908 11.6856 13.32 11.6902 14.733C11.6912 15.1295 11.8352 15.2718 12.2082 15.2724C12.5917 15.2745 12.7347 15.1265 12.7367 14.7129C12.7388 14.0215 12.7377 13.3304 12.7377 12.6385C12.7377 11.9274 12.7388 11.2169 12.7367 10.5054Z" fill="black"/>
</g>
<defs>
<clipPath id="clip0_21225_144082">
<rect width="25" height="25" fill="white" transform="translate(2.5 2.5)"/>
</clipPath>
</defs>
</svg>
