<svg width="30" height="30" viewBox="0 0 30 30" fill="none" xmlns="http://www.w3.org/2000/svg">
<g clip-path="url(#clip0_21338_138023)">
<path d="M11.591 12.7259C12.2186 12.7259 12.7273 12.2171 12.7273 11.5895C12.7273 10.9619 12.2186 10.4531 11.591 10.4531C10.9634 10.4531 10.4546 10.9619 10.4546 11.5895C10.4546 12.2171 10.9634 12.7259 11.591 12.7259Z" fill="black"/>
<path d="M12.7273 13.2969H10.4546V19.5469H12.7273V13.2969Z" fill="black"/>
<path d="M15 2.5C8.09644 2.5 2.5 8.09644 2.5 15C2.5 21.9036 8.09644 27.5 15 27.5C21.9036 27.5 27.5 21.9036 27.5 15C27.5 8.09644 21.9036 2.5 15 2.5ZM15 26.3636C8.72402 26.3636 3.63638 21.276 3.63638 15C3.63638 8.72402 8.72402 3.63638 15 3.63638C21.276 3.63638 26.3636 8.72402 26.3636 15C26.3636 21.276 21.276 26.3636 15 26.3636Z" fill="black"/>
<path d="M18.0456 13.2969C16.341 13.2969 16.1365 14.3083 16.1365 14.3083V13.2969H13.8638V19.5469H16.1365V16.1378C16.1365 16.1378 16.1365 15.0014 17.1024 15.0014C17.6706 15.0014 17.841 15.5071 17.841 16.1378V19.5469H20.1137V16.1378C20.1137 14.3594 19.341 13.2969 18.0456 13.2969Z" fill="black"/>
</g>
<defs>
<clipPath id="clip0_21338_138023">
<rect width="25" height="25" fill="white" transform="translate(2.5 2.5)"/>
</clipPath>
</defs>
</svg>
