<?xml version="1.0" encoding="utf-8"?>
<!-- Generator: Adobe Illustrator 28.3.0, SVG Export Plug-In . SVG Version: 6.00 Build 0)  -->
<svg version="1.1" id="圖層_1" xmlns="http://www.w3.org/2000/svg" xmlns:xlink="http://www.w3.org/1999/xlink" x="0px" y="0px"
	 viewBox="0 0 30 30" style="enable-background:new 0 0 30 30;" xml:space="preserve">
<style type="text/css">
	.st0{fill:#FFFFFF;}
</style>
<g id="圖層_1_00000161627603906451197790000002466429196612571781_">
</g>
<path class="st0" d="M22,10.6c1,0.6,1.8,1,2.6,1.5c0.3,0.2,0.5,0.7,0.5,1c0,3.4,0,6.8,0,10.3c0,0.3-0.2,0.8-0.4,0.9
	c-2.8,1.7-5.6,3.3-8.7,5c0-1.5,0-2.8,0-4.1c0-0.3,0.4-0.6,0.7-0.7c1.5-0.9,3-1.8,4.6-2.7c0.6-0.3,0.8-0.7,0.8-1.4
	C22,17.2,22,14,22,10.6z"/>
<path class="st0" d="M15.8,0.6c1.9,1.1,3.7,2.1,5.4,3.1c2.7,1.6,5.3,3.1,8,4.6C29.8,8.7,30,9.1,30,9.7c-0.1,1.2,0,2.3,0,3.7
	c-1.6-0.9-2.9-1.7-4.3-2.5c-3.1-1.8-6.1-3.5-9.2-5.3C16,5.3,15.7,5,15.8,4.3C15.8,3.2,15.8,2.1,15.8,0.6z"/>
<path class="st0" d="M26.7,16.6c0-1.2,0-2.1,0-3.3c0.9,0.5,1.7,1,2.8,1.6C28.5,15.6,27.7,16,26.7,16.6z"/>
<path class="st0" d="M14.2,0.6c0,1.5,0,2.8,0,4.1c0,0.2-0.2,0.6-0.4,0.7c-4.5,2.6-9,5.2-13.7,8c0-1.6,0-2.9,0-4.3
	c0-0.2,0.3-0.4,0.5-0.5C5,6,9.4,3.4,14.2,0.6z"/>
<path class="st0" d="M8.2,10.5c0,5.2,0,10.2,0,15.4c-1-0.6-2-1.1-2.9-1.7c-0.2-0.1-0.4-0.6-0.4-0.9c0-3.4,0-6.8,0-10.1
	c0-0.4,0.3-0.9,0.6-1.1C6.4,11.5,7.2,11.1,8.2,10.5z"/>
<path class="st0" d="M3.3,13.4c0,1.2,0,2.1,0,3.3c-0.9-0.6-1.7-1-2.8-1.6C1.5,14.4,2.3,13.9,3.3,13.4z"/>
</svg>
